<?xml version="1.0" encoding="UTF-8" standalone="no"?>
<svg
   inkscape:export-ydpi="96"
   inkscape:export-xdpi="96"
   sodipodi:docname="orama_logo.svg"
   inkscape:version="1.3-dev (4ab1461e, 2022-04-10)"
   id="svg8"
   version="1.1"
   viewBox="0 0 1089.2897 392.90624"
   height="1485"
   width="4117"
   xml:space="preserve"
   xmlns:inkscape="http://www.inkscape.org/namespaces/inkscape"
   xmlns:sodipodi="http://sodipodi.sourceforge.net/DTD/sodipodi-0.dtd"
   xmlns="http://www.w3.org/2000/svg"
   xmlns:svg="http://www.w3.org/2000/svg"
   xmlns:rdf="http://www.w3.org/1999/02/22-rdf-syntax-ns#"
   xmlns:cc="http://creativecommons.org/ns#"
   xmlns:dc="http://purl.org/dc/elements/1.1/"><defs
     id="defs2"><rect
       id="rect26"
       height="238.125"
       width="635"
       y="26.458332"
       x="264.58334" /><rect
       id="rect26-9"
       height="238.125"
       width="635"
       y="26.458332"
       x="264.58334" /></defs><sodipodi:namedview
     inkscape:window-maximized="1"
     inkscape:window-y="1072"
     inkscape:window-x="-8"
     inkscape:window-height="1017"
     inkscape:window-width="1920"
     inkscape:guide-bbox="true"
     showguides="true"
     units="px"
     showgrid="true"
     inkscape:document-rotation="0"
     inkscape:current-layer="layer1"
     inkscape:document-units="px"
     inkscape:cy="1648.569"
     inkscape:cx="1539.4725"
     inkscape:zoom="0.24748737"
     inkscape:pageshadow="2"
     inkscape:pageopacity="0.0"
     borderopacity="1.0"
     bordercolor="#666666"
     pagecolor="#ffffff"
     id="base"
     inkscape:pagecheckerboard="0"
     inkscape:deskcolor="#d1d1d1"><inkscape:grid
       spacingy="26.458333"
       spacingx="26.458333"
       id="grid36"
       type="xygrid"
       originx="0"
       originy="0" /></sodipodi:namedview><metadata
     id="metadata5"><rdf:RDF><cc:Work
         rdf:about=""><dc:format>image/svg+xml</dc:format><dc:type
           rdf:resource="http://purl.org/dc/dcmitype/StillImage" /></cc:Work></rdf:RDF></metadata><g
     id="layer1"
     inkscape:groupmode="layer"
     inkscape:label="Layer 1"><circle
       r="0"
       cy="264.58331"
       cx="264.58331"
       id="path959"
       style="opacity:1;fill:#1c1c1c;fill-opacity:1;stroke-width:0.244929;stroke-miterlimit:4;stroke-dasharray:none" /><circle
       r="0"
       style="opacity:1;fill:#1c1c1c;fill-opacity:1;stroke-width:0.244929;stroke-miterlimit:4;stroke-dasharray:none"
       id="circle1002"
       cx="264.58331"
       cy="264.58331" /><text
       style="font-style:normal;font-weight:normal;font-size:10.5833px;line-height:1.25;font-family:sans-serif;letter-spacing:0px;word-spacing:0px;white-space:pre;shape-inside:url(#rect26);display:inline;fill:#000000;fill-opacity:1;stroke:none"
       id="text24"
       xml:space="preserve" /><circle
       style="fill:#1c1c1c;fill-opacity:1;stroke-width:0.244929;stroke-miterlimit:4;stroke-dasharray:none"
       id="path959-4"
       cx="650.11908"
       cy="-305.40475"
       r="0" /><circle
       cy="-305.40475"
       cx="650.11908"
       id="circle1002-1"
       style="fill:#1c1c1c;fill-opacity:1;stroke-width:0.244929;stroke-miterlimit:4;stroke-dasharray:none"
       r="0" /><g
       aria-label="rama"
       id="text32"
       style="font-size:369.027px;line-height:1.25;letter-spacing:0px;word-spacing:0px;fill:#2b3036;stroke-width:1.60168"><path
         d="m 368.77428,100.03885 q -8.85665,-4.059295 -15.86816,-4.059295 -14.76108,0 -24.35578,10.332755 -10.33276,11.07081 -10.33276,25.46286 V 249.12576 H 286.48126 V 131.77517 q 0,-19.92745 9.96373,-36.533669 10.33275,-16.606216 28.04605,-25.831891 13.28497,-6.273459 28.41508,-6.273459 12.17789,0 23.2487,4.428324 11.07081,4.428324 23.2487,14.392053 z"
         style="font-weight:bold;font-family:'Sulphur Point';-inkscape-font-specification:'Sulphur Point Bold'"
         id="path11485" /><path
         d="m 548.85937,249.12576 v -28.04605 q -11.80887,13.654 -27.308,21.77259 -15.49913,8.1186 -32.8434,8.1186 -19.18941,0 -36.16465,-7.01152 -16.60622,-7.01151 -29.52216,-19.92745 -12.91595,-12.54692 -20.29649,-29.52216 -7.01151,-17.34427 -7.01151,-36.16465 0,-18.82038 7.01151,-35.79562 7.38054,-17.34427 20.29649,-30.260215 12.91594,-12.915946 29.52216,-19.927459 16.97524,-7.011513 36.16465,-7.011513 17.71329,0 33.21243,7.38054 15.86816,7.38054 26.93897,20.665513 V 69.040583 H 582.0718 V 249.12576 Z M 488.70797,98.193717 q -12.1779,0 -23.61773,4.797353 -11.07081,4.42832 -19.18941,12.54692 -8.11859,8.11859 -12.91594,19.55843 -4.42833,11.07081 -4.42833,23.2487 0,12.17789 4.42833,23.2487 4.79735,11.07081 12.91594,19.1894 8.1186,8.1186 19.18941,12.91595 11.43983,4.42832 23.61773,4.42832 12.17789,0 23.2487,-4.42832 11.07081,-4.79735 19.1894,-12.91595 8.1186,-8.11859 12.54692,-19.1894 4.79735,-11.07081 4.79735,-23.2487 0,-12.17789 -4.79735,-23.2487 -4.42832,-11.43984 -12.54692,-19.55843 -8.11859,-8.1186 -19.1894,-12.54692 -11.07081,-4.797353 -23.2487,-4.797353 z"
         style="font-weight:bold;font-family:'Sulphur Point';-inkscape-font-specification:'Sulphur Point Bold'"
         id="path11487" /><path
         d="M 831.16477,249.12576 V 133.62031 q 0,-15.13011 -10.70179,-25.46286 -10.33275,-10.33276 -25.46286,-10.33276 -14.76108,0 -25.83189,10.33276 -10.70178,9.96373 -10.70178,25.09383 V 249.12576 H 724.88499 V 133.25128 q 0,-15.49913 -10.33276,-25.09383 -11.07081,-10.33276 -26.20091,-10.33276 -14.76108,0 -25.09384,10.33276 -11.07081,11.07081 -11.07081,26.20091 v 114.7674 H 618.97424 V 69.040583 h 33.21243 v 13.653999 q 6.27346,-7.749567 16.23719,-12.915945 10.33275,-5.166378 19.92746,-5.166378 16.23718,0 29.52216,6.642486 13.654,6.273459 23.61773,17.713296 9.96372,-11.439837 23.61772,-17.713296 13.654,-6.642486 29.89119,-6.642486 14.39205,0 26.93897,5.166378 12.54692,5.166378 22.14162,14.76108 9.59471,9.594703 14.76108,22.510643 5.53541,12.54692 5.53541,26.56995 v 115.50545 z"
         style="font-weight:bold;font-family:'Sulphur Point';-inkscape-font-specification:'Sulphur Point Bold'"
         id="path11489" /><path
         d="m 1050.7357,249.12576 v -28.04605 q -11.8089,13.654 -27.308,21.77259 -15.4992,8.1186 -32.84344,8.1186 -19.18941,0 -36.16465,-7.01152 -16.60622,-7.01151 -29.52216,-19.92745 -12.91595,-12.54692 -20.29649,-29.52216 -7.01151,-17.34427 -7.01151,-36.16465 0,-18.82038 7.01151,-35.79562 7.38054,-17.34427 20.29649,-30.260215 12.91594,-12.915946 29.52216,-19.927459 16.97524,-7.011513 36.16465,-7.011513 17.71334,0 33.21244,7.38054 15.8681,7.38054 26.939,20.665513 V 69.040583 h 33.2124 V 249.12576 Z M 990.58426,98.193717 q -12.1779,0 -23.61773,4.797353 -11.07081,4.42832 -19.18941,12.54692 -8.11859,8.11859 -12.91594,19.55843 -4.42833,11.07081 -4.42833,23.2487 0,12.17789 4.42833,23.2487 4.79735,11.07081 12.91594,19.1894 8.1186,8.1186 19.18941,12.91595 11.43983,4.42832 23.61773,4.42832 12.17784,0 23.24874,-4.42832 11.0708,-4.79735 19.1894,-12.91595 8.1186,-8.11859 12.5469,-19.1894 4.7973,-11.07081 4.7973,-23.2487 0,-12.17789 -4.7973,-23.2487 -4.4283,-11.43984 -12.5469,-19.55843 -8.1186,-8.1186 -19.1894,-12.54692 -11.0709,-4.797353 -23.24874,-4.797353 z"
         style="font-weight:bold;font-family:'Sulphur Point';-inkscape-font-specification:'Sulphur Point Bold'"
         id="path11491" /></g><g
       aria-label="Interactive"
       transform="matrix(1.006091,0,0,0.95534846,14.023726,5.5678262)"
       id="text36"
       style="font-size:149.8px;line-height:1.25;letter-spacing:28.0822px;word-spacing:0px;fill:#46b390;fill-opacity:1;stroke-width:1.04028"><path
         d="M 6.2472462,297.68428 H 17.332446 v 104.86 H 6.2472462 Z"
         style="font-family:Montserrat;-inkscape-font-specification:Montserrat;fill:#46b390;fill-opacity:1"
         id="path11494" /><path
         d="m 117.46845,323.15028 q 14.83021,0 23.51861,8.6884 8.8382,8.5386 8.8382,25.0166 v 45.689 h -10.6358 v -44.6404 q 0,-12.2836 -6.1418,-18.725 -6.1418,-6.4414 -17.52661,-6.4414 -12.733,0 -20.222996,7.6398 -7.3402,7.49 -7.3402,20.8222 v 41.3448 h -10.6358 v -78.7948 h 10.1864 v 14.5306 q 4.3442,-7.1904 11.984,-11.0852 7.789596,-4.0446 17.975996,-4.0446 z"
         style="font-family:Montserrat;-inkscape-font-specification:Montserrat;fill:#46b390;fill-opacity:1"
         id="path11496" /><path
         d="m 248.31347,397.75068 q -2.996,2.6964 -7.49,4.1944 -4.3442,1.3482 -9.1378,1.3482 -11.0852,0 -17.0772,-5.992 -5.99201,-5.992 -5.99201,-16.9274 v -47.6364 h -14.0812 v -8.988 h 14.0812 v -17.227 h 10.63581 v 17.227 h 23.968 v 8.988 h -23.968 v 47.0372 q 0,7.0406 3.4454,10.7856 3.5952,3.5952 10.1864,3.5952 3.2956,0 6.2916,-1.0486 3.1458,-1.0486 5.3928,-2.996 z"
         style="font-family:Montserrat;-inkscape-font-specification:Montserrat;fill:#46b390;fill-opacity:1"
         id="path11498" /><path
         d="m 361.48221,366.44248 h -65.912 q 0.8988,12.2836 9.4374,19.9234 8.5386,7.49 21.5712,7.49 7.3402,0 13.482,-2.5466 6.1418,-2.6964 10.6358,-7.7896 l 5.992,6.8908 q -5.243,6.2916 -13.1824,9.5872 -7.7896,3.2956 -17.227,3.2956 -12.1338,0 -21.5712,-5.0932 -9.2876,-5.243 -14.5306,-14.3808 -5.243,-9.1378 -5.243,-20.6724 0,-11.5346 4.9434,-20.6724 5.0932,-9.1378 13.7816,-14.231 8.8382,-5.0932 19.7736,-5.0932 10.9354,0 19.6238,5.0932 8.6884,5.0932 13.6318,14.231 4.9434,8.988 4.9434,20.6724 z m -38.0492,-34.1544 q -11.3848,0 -19.1744,7.3402 -7.6398,7.1904 -8.6884,18.8748 h 55.8754 q -1.0486,-11.6844 -8.8382,-18.8748 -7.6398,-7.3402 -19.1744,-7.3402 z"
         style="font-family:Montserrat;-inkscape-font-specification:Montserrat;fill:#46b390;fill-opacity:1"
         id="path11500" /><path
         d="m 421.62164,339.17888 q 3.745,-7.9394 11.0852,-11.984 7.49,-4.0446 18.4254,-4.0446 v 10.3362 l -2.5466,-0.1498 q -12.4334,0 -19.474,7.6398 -7.0406,7.6398 -7.0406,21.4214 v 40.1464 h -10.6358 v -78.7948 h 10.1864 z"
         style="font-family:Montserrat;-inkscape-font-specification:Montserrat;fill:#46b390;fill-opacity:1"
         id="path11502" /><path
         d="m 525.80197,323.15028 q 15.4294,0 23.6684,7.7896 8.239,7.6398 8.239,22.7696 v 48.8348 h -10.1864 v -12.2836 q -3.5952,6.1418 -10.6358,9.5872 -6.8908,3.4454 -16.478,3.4454 -13.1824,0 -20.972,-6.2916 -7.7896,-6.2916 -7.7896,-16.6278 0,-10.0366 7.1904,-16.1784 7.3402,-6.1418 23.219,-6.1418 h 25.0166 v -4.7936 q 0,-10.1864 -5.6924,-15.4294 -5.6924,-5.3928 -16.6278,-5.3928 -7.49,0 -14.3808,2.5466 -6.8908,2.3968 -11.8342,6.741 l -4.7936,-7.9394 q 5.992,-5.0932 14.3808,-7.7896 8.3888,-2.8462 17.6764,-2.8462 z m -3.745,71.7542 q 8.988,0 15.4294,-4.0446 6.4414,-4.1944 9.5872,-11.984 v -12.8828 h -24.717 q -20.223,0 -20.223,14.0812 0,6.8908 5.243,10.9354 5.243,3.8948 14.6804,3.8948 z"
         style="font-family:Montserrat;-inkscape-font-specification:Montserrat;fill:#46b390;fill-opacity:1"
         id="path11504" /><path
         d="m 647.65915,403.29328 q -11.6844,0 -20.972,-5.0932 -9.1378,-5.0932 -14.3808,-14.231 -5.243,-9.2876 -5.243,-20.8222 0,-11.5346 5.243,-20.6724 5.243,-9.1378 14.3808,-14.231 9.2876,-5.0932 20.972,-5.0932 10.1864,0 18.1258,4.0446 8.0892,3.8948 12.733,11.5346 l -7.9394,5.3928 q -3.8948,-5.8422 -9.8868,-8.6884 -5.992,-2.996 -13.0326,-2.996 -8.5386,0 -15.4294,3.8948 -6.741,3.745 -10.6358,10.7856 -3.745,7.0406 -3.745,16.0286 0,9.1378 3.745,16.1784 3.8948,6.8908 10.6358,10.7856 6.8908,3.745 15.4294,3.745 7.0406,0 13.0326,-2.8462 5.992,-2.8462 9.8868,-8.6884 l 7.9394,5.3928 q -4.6438,7.6398 -12.733,11.6844 -8.0892,3.8948 -18.1258,3.8948 z"
         style="font-family:Montserrat;-inkscape-font-specification:Montserrat;fill:#46b390;fill-opacity:1"
         id="path11506" /><path
         d="m 769.81577,397.75068 q -2.996,2.6964 -7.49,4.1944 -4.3442,1.3482 -9.1378,1.3482 -11.0852,0 -17.0772,-5.992 -5.992,-5.992 -5.992,-16.9274 v -47.6364 h -14.0812 v -8.988 h 14.0812 v -17.227 h 10.6358 v 17.227 h 23.968 v 8.988 h -23.968 v 47.0372 q 0,7.0406 3.4454,10.7856 3.5952,3.5952 10.1864,3.5952 3.2956,0 6.2916,-1.0486 3.1458,-1.0486 5.3928,-2.996 z"
         style="font-family:Montserrat;-inkscape-font-specification:Montserrat;fill:#46b390;fill-opacity:1"
         id="path11508" /><path
         d="m 817.22217,323.74948 h 10.6358 v 78.7948 h -10.6358 z m 5.3928,-17.227 q -3.2956,0 -5.5426,-2.247 -2.247,-2.247 -2.247,-5.3928 0,-2.996 2.247,-5.243 2.247,-2.247 5.5426,-2.247 3.2956,0 5.5426,2.247 2.247,2.0972 2.247,5.0932 0,3.2956 -2.247,5.5426 -2.247,2.247 -5.5426,2.247 z"
         style="font-family:Montserrat;-inkscape-font-specification:Montserrat;fill:#46b390;fill-opacity:1"
         id="path11510" /><path
         d="m 951.81207,323.74948 -35.0532,78.7948 h -10.9354 l -34.9034,-78.7948 h 11.0852 l 29.5106,67.1104 29.8102,-67.1104 z"
         style="font-family:Montserrat;-inkscape-font-specification:Montserrat;fill:#46b390;fill-opacity:1"
         id="path11512" /><path
         d="m 1061.2357,366.44248 h -65.91198 q 0.8988,12.2836 9.43738,19.9234 8.5386,7.49 21.5712,7.49 7.3402,0 13.482,-2.5466 6.1418,-2.6964 10.6358,-7.7896 l 5.992,6.8908 q -5.243,6.2916 -13.1824,9.5872 -7.7896,3.2956 -17.227,3.2956 -12.1338,0 -21.5712,-5.0932 -9.28758,-5.243 -14.53058,-14.3808 -5.243,-9.1378 -5.243,-20.6724 0,-11.5346 4.9434,-20.6724 5.0932,-9.1378 13.78158,-14.231 8.8382,-5.0932 19.7736,-5.0932 10.9354,0 19.6238,5.0932 8.6884,5.0932 13.6318,14.231 4.9434,8.988 4.9434,20.6724 z m -38.0492,-34.1544 q -11.3848,0 -19.1744,7.3402 -7.63978,7.1904 -8.68838,18.8748 h 55.87538 q -1.0486,-11.6844 -8.8382,-18.8748 -7.6398,-7.3402 -19.1744,-7.3402 z"
         style="font-family:Montserrat;-inkscape-font-specification:Montserrat;fill:#46b390;fill-opacity:1"
         id="path11514" /></g><path
       id="path47-3"
       style="fill:#286e58;stroke-width:0.123946"
       d="m 52.39251,59.597221 a 99.157043,99.157043 0 0 1 140.04403,-7.204698 99.157043,99.157043 0 0 1 7.2047,140.044027 99.157043,99.157043 0 0 1 -140.044027,7.2047 A 99.157043,99.157043 0 0 1 52.39251,59.597221 Z" /><path
       id="path1639"
       style="fill:#46b390;fill-opacity:1;stroke-width:0.0934387;stroke-miterlimit:4;stroke-dasharray:none"
       d="m 51.88919,28.723688 a 74.75114,74.75114 0 0 0 74.12767,65.4881 74.75114,74.75114 0 0 0 74.12789,-65.4881 h -74.26922 z" /><path
       id="circle882-8"
       style="fill:#86898f;fill-opacity:1;stroke-width:0.189267;stroke-miterlimit:4;stroke-dasharray:none"
       d="m 88.832964,138.3042 v 79.57907 a 99.157044,99.157044 0 0 0 37.183866,7.29059 99.157044,99.157044 0 0 0 37.18388,-7.29059 V 138.3042 h -37.37136 z" /><path
       id="circle4522"
       style="fill:#46b390;fill-opacity:1;stroke-width:0.123946;stroke-miterlimit:4;stroke-dasharray:none"
       d="m 27.686811,138.3042 a 99.157044,99.157044 0 0 0 98.330019,86.86966 99.157044,99.157044 0 0 0 98.3303,-86.86966 h -98.51778 z" /><path
       id="path957-6"
       style="fill:#286e58;stroke-width:0.123946"
       d="M 200.38466,126.01689 A 74.367775,74.367775 0 0 1 126.01688,200.38466 74.367775,74.367775 0 0 1 51.649108,126.01689 74.367775,74.367775 0 0 1 126.01688,51.649108 74.367775,74.367775 0 0 1 200.38466,126.01689 Z" /><path
       id="path15-9"
       style="fill:#2b3036;stroke-width:0.131226"
       d="M 174.7121,126.0169 A 48.695221,48.695221 0 0 1 126.01688,174.71212 48.695221,48.695221 0 0 1 77.321662,126.0169 48.695221,48.695221 0 0 1 126.01688,77.321677 48.695221,48.695221 0 0 1 174.7121,126.0169 Z" /><path
       id="path45-8"
       style="fill:none;stroke:#2b3036;stroke-width:29.1042"
       d="M 237.48167,126.01689 A 111.46478,111.46478 0 0 1 126.01688,237.48167 111.46478,111.46478 0 0 1 14.5521,126.01689 111.46478,111.46478 0 0 1 126.01688,14.5521 111.46478,111.46478 0 0 1 237.48167,126.01689 Z" /><path
       style="fill:none;stroke:#2b3036;stroke-width:29.1042;stroke-linecap:butt;stroke-linejoin:miter;stroke-dasharray:none;stroke-opacity:1"
       d="m 126.36147,165.35189 v 74.46132"
       id="path1816" /></g></svg>
